<?xml version="1.0" encoding="UTF-8" standalone="no"?>
<svg width="48px" height="52px" viewBox="0 0 48 52" version="1.1" xmlns="http://www.w3.org/2000/svg" xmlns:xlink="http://www.w3.org/1999/xlink">
    <!-- Generator: Sketch 41.2 (35397) - http://www.bohemiancoding.com/sketch -->
    <title>Shape Copy</title>
    <desc>Created with Sketch.</desc>
    <defs></defs>
    <g id="swift" stroke="none" stroke-width="1" fill="none" fill-rule="evenodd">
        <g id="产品详情5th" transform="translate(-1648.000000, -742.000000)" fill="#FFFFFF">
            <g id="Sensors" transform="translate(0.000000, -199.000000)">
                <g id="sensors_names" transform="translate(68.000000, 450.000000)">
                    <g id="Mini-Fan" transform="translate(1520.000000, 491.000000)">
                        <path d="M78.620951,18.508864 C79.4389983,17.7085372 80.4469319,17.1017379 81.5710186,16.7623212 L78.1838298,10.8955634 C77.7421572,10.130313 76.7637169,9.86821019 75.9984665,10.3098829 L75.8005694,10.4241546 C75.0353191,10.8660701 74.7731556,11.844389 75.215071,12.6095787 L78.620951,18.508864 Z M76.8234926,25.9319748 L70.8955633,29.3544828 C70.130313,29.7962768 69.8681495,30.7747171 70.3099435,31.5399068 L70.4242152,31.7378039 C70.8659486,32.5029936 71.8443282,32.7651571 72.6096393,32.3233631 L78.654207,28.8335543 C77.8293629,28.0368079 77.194284,27.0448953 76.8234926,25.9319748 Z M97.2284905,15.9984666 C96.7865751,15.2332768 95.8080741,14.9711741 95.0430058,15.4129074 L89.0407969,18.8782597 C89.7990684,19.7325971 90.3570761,20.768507 90.6415114,21.9126808 L96.7571424,18.3818483 C97.5222107,17.9399936 97.7843742,16.961614 97.3426409,16.1963636 L97.2284905,15.9984666 Z M88.5812825,28.9041927 C87.747821,29.6866779 86.7281143,30.2729654 85.5955316,30.5892608 L89.1564644,36.7570817 C89.5981977,37.5223321 90.5767593,37.7844349 91.341949,37.3427016 L91.5397854,37.2284298 C92.3051571,36.7866965 92.5673207,35.8081955 92.1255873,35.0430058 L88.5812825,28.9041927 Z M85.8260777,51.8808203 L85.8260778,47.2112151 C97.8726116,46.1149833 107.309891,35.9871585 107.309891,23.6549149 C107.309891,23.2524102 107.299838,22.8522536 107.279969,22.4546824 C106.654952,9.94808561 96.3166501,0 83.6549149,0 C70.5906769,0 60,10.5906769 60,23.6549149 C60,36.2975067 69.9180334,46.6232892 82.3978652,47.276756 L82.3978652,51.8808203 C82.3978652,52.0396962 85.8260777,52.0397569 85.8260777,51.8808203 Z M61.4825962,23.6326493 C61.4825962,11.3995167 71.3994503,1.48259617 83.6325165,1.48259617 C95.8656491,1.48259617 105.78257,11.3995167 105.78257,23.6326493 C105.78257,35.865782 95.8656491,45.7826361 83.6325165,45.7826361 C71.3994503,45.782636 61.4825962,35.865782 61.4825962,23.6326493 Z M87.6545467,23.7692474 C87.6545467,21.6233906 85.9150434,19.883948 83.7691866,19.883948 C81.6233299,19.883948 79.8838266,21.6233906 79.8838266,23.7692474 C79.8838266,25.9151041 81.6233906,27.6545468 83.7691866,27.6545468 C85.9149827,27.6545468 87.6545467,25.9150434 87.6545467,23.7692474 Z" id="Shape-Copy"></path>
                    </g>
                </g>
            </g>
        </g>
    </g>
</svg>