<?xml version="1.0" encoding="UTF-8" standalone="no"?>
<svg width="42px" height="53px" viewBox="0 0 42 53" version="1.1" xmlns="http://www.w3.org/2000/svg" xmlns:xlink="http://www.w3.org/1999/xlink">
    <!-- Generator: Sketch 41.2 (35397) - http://www.bohemiancoding.com/sketch -->
    <title>magnet-2</title>
    <desc>Created with Sketch.</desc>
    <defs></defs>
    <g id="swift" stroke="none" stroke-width="1" fill="none" fill-rule="evenodd">
        <g id="产品详情5th" transform="translate(-1545.000000, -616.000000)" fill="#FFFFFF">
            <g id="Sensors" transform="translate(0.000000, -199.000000)">
                <g id="sensors_names" transform="translate(68.000000, 450.000000)">
                    <g id="Electromagnet" transform="translate(1409.000000, 365.000000)">
                        <g id="magnet" transform="translate(68.000000, 0.000000)">
                            <g id="magnet-2" transform="translate(21.000000, 26.500000) rotate(-90.000000) translate(-21.000000, -26.500000) translate(-5.500000, 5.500000)">
                                <path d="M20.6959976,12.2364391 L45.9911058,12.2364391 L45.9911058,-1.77635684e-14 L20.6959976,-1.77635684e-14 C9.28407125,-1.77635684e-14 -6.75015599e-14,9.26298439 -6.75015599e-14,20.6489909 C-6.75015599e-14,32.0349975 9.28407125,41.2979819 20.6959976,41.2979819 L45.9911058,41.2979819 L45.9911058,29.0615428 L20.6959976,29.0615428 C16.0470634,29.0615428 12.2642949,25.2873661 12.2642949,20.6489909 C12.2642949,16.0106158 16.0470634,12.2364391 20.6959976,12.2364391 L20.6959976,12.2364391 Z M44.458069,10.7068842 L35.2598478,10.7068842 L35.2598478,1.52955487 L44.458069,1.52955487 L44.458069,10.7068842 Z M44.458069,39.768427 L35.2598478,39.768427 L35.2598478,30.5910977 L44.458069,30.5910977 L44.458069,39.768427 Z M10.731258,20.6489909 C10.731258,26.1309157 15.2015935,30.5910977 20.6959976,30.5910977 L33.7268109,30.5910977 L33.7268109,39.768427 L20.6959976,39.768427 C10.1295411,39.768427 1.53303685,31.191448 1.53303685,20.6489909 C1.53303685,10.1065339 10.1295411,1.52955487 20.6959976,1.52955487 L33.7268109,1.52955487 L33.7268109,10.7068842 L20.6959976,10.7068842 C15.2015935,10.7068842 10.731258,15.1670662 10.731258,20.6489909 Z M37.5594031,6.88299698 L39.09244,6.88299698 L39.09244,8.41255185 C39.0923737,8.6858246 39.2384568,8.93836735 39.4756456,9.07502282 C39.7128345,9.2116783 40.0050823,9.2116783 40.2422712,9.07502282 C40.47946,8.93836735 40.6255431,8.6858246 40.6254768,8.41255185 L40.6254768,6.88299698 L42.1585137,6.88299698 C42.4324086,6.88306313 42.6855262,6.73731184 42.8224928,6.50066171 C42.9594593,6.26401158 42.9594593,5.9724275 42.8224928,5.73577738 C42.6855262,5.49912725 42.4324086,5.35337596 42.1585137,5.35344211 L40.6254768,5.35344211 L40.6254768,3.8238872 C40.6255431,3.55061444 40.47946,3.2980717 40.2422712,3.16141622 C40.0050823,3.02476075 39.7128345,3.02476075 39.4756456,3.16141622 C39.2384568,3.2980717 39.0923737,3.55061444 39.09244,3.8238872 L39.09244,5.35344211 L37.5594031,5.35344211 C37.2855083,5.35337596 37.0323906,5.49912725 36.8954241,5.73577738 C36.7584575,5.9724275 36.7584575,6.26401158 36.8954241,6.50066171 C37.0323906,6.73731184 37.2855083,6.88306313 37.5594031,6.88299698 L37.5594031,6.88299698 Z M37.5594031,35.9445398 L42.1585137,35.9445398 C42.4324086,35.9446059 42.6855262,35.7988546 42.8224928,35.5622045 C42.9594593,35.3255544 42.9594593,35.0339703 42.8224928,34.7973202 C42.6855262,34.56067 42.4324086,34.4149187 42.1585137,34.4149849 L37.5594031,34.4149849 C37.2855083,34.4149187 37.0323906,34.56067 36.8954241,34.7973202 C36.7584575,35.0339703 36.7584575,35.3255544 36.8954241,35.5622045 C37.0323906,35.7988546 37.2855083,35.9446059 37.5594031,35.9445398 L37.5594031,35.9445398 Z" id="Combined-Shape"></path>
                                <path d="M50.2610739,19.7509419 L50.2661973,14 L47,21.0261015 L48.6339424,21.021632 L48.0944686,25.9613466 L52.959765,19.7533402 L50.2610739,19.7509419 Z" id="Combined-Shape"></path>
                            </g>
                        </g>
                    </g>
                </g>
            </g>
        </g>
    </g>
</svg>