<?xml version="1.0" encoding="UTF-8" standalone="no"?>
<svg width="46px" height="46px" viewBox="0 0 46 46" version="1.1" xmlns="http://www.w3.org/2000/svg" xmlns:xlink="http://www.w3.org/1999/xlink">
    <!-- Generator: Sketch 41.2 (35397) - http://www.bohemiancoding.com/sketch -->
    <title>Rectangle 10</title>
    <desc>Created with Sketch.</desc>
    <defs></defs>
    <g id="swift" stroke="none" stroke-width="1" fill="none" fill-rule="evenodd">
        <g id="产品详情5th" transform="translate(-405.000000, -319.000000)" fill="#FFFFFF">
            <g id="Sensors" transform="translate(0.000000, -199.000000)">
                <g id="sensors_names" transform="translate(68.000000, 450.000000)">
                    <g id="Color-Sensor" transform="translate(295.000000, 68.000000)">
                        <path d="M42,22.9999987 C42,22.6889275 42.2519508,22.4367544 42.5691687,22.4367544 L49.0033376,22.4367544 C49.3176808,22.4367544 49.5725064,22.6980249 49.5725064,22.9999987 C49.5725064,23.3110699 49.3205555,23.5632429 49.0033376,23.5632429 L42.5691687,23.5632429 C42.2548255,23.5632429 42,23.3019724 42,22.9999987 Z M43.0217963,16.2114606 C43.1127448,15.9139817 43.4274148,15.7464907 43.7307718,15.8392363 L49.8837981,17.7204052 C50.184406,17.8123103 50.3517088,18.1366683 50.2634202,18.4254472 C50.1724718,18.7229261 49.8578017,18.8904171 49.5544447,18.7976716 L43.4014184,16.9165026 C43.1008105,16.8245976 42.9335078,16.5002396 43.0217963,16.2114606 Z M45.9966365,10.0244935 C46.1705853,9.76660373 46.5204754,9.69843191 46.7834609,9.87581791 L52.1176287,13.4737595 C52.378231,13.649538 52.4433903,14.0086377 52.2745288,14.2589853 C52.1005799,14.516875 51.7506898,14.5850468 51.4877043,14.4076608 L46.1535365,10.8097192 C45.8929342,10.6339408 45.8277749,10.274841 45.9966365,10.0244935 Z M50.6608982,4.98735743 C50.9026459,4.79159397 51.257179,4.8286989 51.4568107,5.07522351 L55.5059644,10.0755119 C55.7037869,10.3198024 55.6611085,10.6822619 55.4264308,10.8723002 C55.1846831,11.0680636 54.83015,11.0309587 54.6305183,10.7844341 L50.5813646,5.78414572 C50.383542,5.53985516 50.4262205,5.17739566 50.6608982,4.98735743 Z M56.6627319,1.5221971 C56.9531419,1.41071914 57.2788569,1.55556477 57.3925376,1.85171319 L59.6983375,7.85852733 C59.810988,8.151992 59.6583923,8.48352311 59.3764755,8.59174082 C59.0860655,8.70321878 58.7603506,8.55837314 58.6466698,8.26222472 L56.3408699,2.25541058 C56.2282194,1.96194591 56.3808151,1.63041481 56.6627319,1.5221971 Z M63.3571505,0.00139598623 C63.667464,-0.0203032454 63.936598,0.21344315 63.958726,0.529888322 L64.4075509,6.9483839 C64.4294784,7.26196139 64.18662,7.53439149 63.8853819,7.55545611 C63.5750684,7.57715534 63.3059344,7.34340894 63.2838064,7.02696377 L62.8349815,0.608468191 C62.813054,0.294890702 63.0559124,0.0224606093 63.3571505,0.00139598623 Z M70.2026413,0.518592457 C70.5057398,0.588568257 70.6947731,0.890788205 70.6234146,1.19987583 L69.1760415,7.46913739 C69.1053297,7.77542401 68.7934322,7.96494529 68.499198,7.89701598 C68.1960996,7.82704018 68.0070663,7.52482023 68.0784248,7.2157326 L69.5257979,0.946471043 C69.5965097,0.640184425 69.9084072,0.450663147 70.2026413,0.518592457 Z M76.5925859,3.02795989 C76.8619815,3.1834955 76.9543943,3.52777785 76.7957854,3.80249661 L73.5787009,9.37465033 C73.4215293,9.64687954 73.0678496,9.73692964 72.8063327,9.58594277 C72.5369371,9.43040716 72.4445243,9.08612481 72.6031332,8.81140605 L75.8202177,3.23925234 C75.9773893,2.96702313 76.331069,2.87697302 76.5925859,3.02795989 Z M81.9607341,7.3071305 C82.1728842,7.53463359 82.1606006,7.89089134 81.9286021,8.10723343 L77.2229489,12.4953261 C76.9930528,12.7097076 76.6284992,12.692417 76.4225536,12.4715674 C76.2104035,12.2440643 76.2226871,11.8878066 76.4546856,11.6714645 L81.1603388,7.28337186 C81.3902349,7.0689903 81.7547885,7.08628089 81.9607341,7.3071305 Z M85.8313848,12.9769012 C85.9677495,13.2564902 85.8518429,13.5935898 85.5667294,13.732649 L79.7837367,16.553203 C79.5012069,16.6910019 79.1576378,16.5678817 79.0252612,16.2964695 C78.8888965,16.0168805 79.0048031,15.6797809 79.2899166,15.5407217 L85.0729093,12.7201678 C85.3554391,12.5823688 85.6990082,12.705489 85.8313848,12.9769012 Z M87.8615417,19.5348383 C87.910204,19.8420798 87.7008036,20.1305619 87.3874912,20.1801858 L81.0325376,21.1867115 C80.7220645,21.2358856 80.4295046,21.0176953 80.3822655,20.7194393 C80.3336032,20.4121979 80.5430036,20.1237157 80.856316,20.0740919 L87.2112696,19.0675661 C87.5217427,19.018392 87.8143026,19.2365824 87.8615417,19.5348383 Z M87.8615417,26.465159 C87.8128795,26.7724004 87.524582,26.982055 87.2112696,26.9324312 L80.856316,25.9259054 C80.5458429,25.8767313 80.3350264,25.578814 80.3822655,25.280558 C80.4309277,24.9733166 80.7192252,24.763662 81.0325376,24.8132858 L87.3874912,25.8198116 C87.6979643,25.8689857 87.9087808,26.1669031 87.8615417,26.465159 Z M85.8313848,33.0230961 C85.6950202,33.3026851 85.3580229,33.4188888 85.0729093,33.2798296 L79.2899166,30.4592756 C79.0073868,30.3214766 78.8928846,29.97494 79.0252612,29.7035278 C79.1616258,29.4239389 79.4986231,29.3077352 79.7837367,29.4467944 L85.5667294,32.2673484 C85.8492592,32.4051474 85.9637614,32.751684 85.8313848,33.0230961 Z M81.9607341,38.6928668 C81.7485841,38.9203699 81.3923373,38.9329676 81.1603388,38.7166255 L76.4546856,34.3285329 C76.2247895,34.1141513 76.216608,33.7492795 76.4225536,33.5284299 C76.6347036,33.3009268 76.9909504,33.2883292 77.2229489,33.5046713 L81.9286021,37.8927639 C82.1584982,38.1071455 82.1666797,38.4720172 81.9607341,38.6928668 Z M76.5925859,42.9720375 C76.3231903,43.1275731 75.9788266,43.0354638 75.8202177,42.760745 L72.6031332,37.1885913 C72.4459616,36.9163621 72.5448158,36.5650414 72.8063327,36.4140546 C73.0757283,36.258519 73.420092,36.3506283 73.5787009,36.625347 L76.7957854,42.1975007 C76.952957,42.4697299 76.8541028,42.8210506 76.5925859,42.9720375 Z M70.2026413,45.4814049 C69.8995428,45.5513807 69.5971564,45.3626139 69.5257979,45.0535263 L68.0784248,38.7842647 C68.007713,38.4779781 68.2049639,38.1709107 68.499198,38.1029814 C68.8022965,38.0330056 69.104683,38.2217723 69.1760415,38.53086 L70.6234146,44.8001215 C70.6941264,45.1064081 70.4968755,45.4134756 70.2026413,45.4814049 Z M63.3571505,45.9986014 C63.0468371,45.9769021 62.8128535,45.7079743 62.8349815,45.3915292 L63.2838064,38.9730336 C63.3057339,38.6594561 63.5841437,38.4234766 63.8853819,38.4445412 C64.1956953,38.4662405 64.4296789,38.7351683 64.4075509,39.0516134 L63.958726,45.470109 C63.9367985,45.7836865 63.6583887,46.019666 63.3571505,45.9986014 Z M56.6627319,44.4778003 C56.3723219,44.3663223 56.2271892,44.0407352 56.3408699,43.7445868 L58.6466698,37.7377726 C58.7593204,37.444308 59.0945587,37.3000388 59.3764755,37.4082565 C59.6668855,37.5197345 59.8120182,37.8453216 59.6983375,38.14147 L57.3925376,44.1482842 C57.279887,44.4417488 56.9446487,44.586018 56.6627319,44.4778003 Z M50.6608982,41.0126399 C50.4191504,40.8168765 50.3817329,40.4623762 50.5813646,40.2158516 L54.6305183,35.2155633 C54.8283409,34.9712727 55.1917532,34.9376589 55.4264308,35.1276972 C55.6681786,35.3234606 55.705596,35.6779609 55.5059644,35.9244855 L51.4568107,40.9247738 C51.2589881,41.1690644 50.8955758,41.2026781 50.6608982,41.0126399 Z M45.9966365,35.9755039 C45.8226876,35.7176142 45.890551,35.3676641 46.1535365,35.1902781 L51.4877043,31.5923365 C51.7483066,31.416558 52.1056672,31.4906645 52.2745288,31.7410121 C52.4484776,31.9989018 52.3806142,32.3488519 52.1176287,32.5262379 L46.7834609,36.1241794 C46.5228586,36.2999579 46.165498,36.2258515 45.9966365,35.9755039 Z M43.0217963,29.7885367 C42.9308479,29.4910578 43.0980614,29.1762402 43.4014184,29.0834947 L49.5544447,27.2023258 C49.8550526,27.1104207 50.1751316,27.2857712 50.2634202,27.5745501 C50.3543686,27.872029 50.1871551,28.1868466 49.8837981,28.2795921 L43.7307718,30.1607611 C43.4301639,30.2526661 43.1100849,30.0773156 43.0217963,29.7885367 Z" id="Rectangle-10"></path>
                    </g>
                </g>
            </g>
        </g>
    </g>
</svg>