<?xml version="1.0" encoding="UTF-8" standalone="no"?>
<svg width="50px" height="49px" viewBox="0 0 50 49" version="1.1" xmlns="http://www.w3.org/2000/svg" xmlns:xlink="http://www.w3.org/1999/xlink">
    <!-- Generator: Sketch 41.2 (35397) - http://www.bohemiancoding.com/sketch -->
    <title>Combined Shape</title>
    <desc>Created with Sketch.</desc>
    <defs></defs>
    <g id="swift" stroke="none" stroke-width="1" fill="none" fill-rule="evenodd">
        <g id="产品详情5th" transform="translate(-184.000000, -316.000000)" fill="#FFFFFF">
            <g id="Sensors" transform="translate(0.000000, -199.000000)">
                <g id="sensors_names" transform="translate(68.000000, 450.000000)">
                    <g id="Lcd-grove" transform="translate(49.000000, 65.000000)">
                        <path d="M67,12.0064476 C67,5.37546968 72.3746078,0 79.0080469,0 L104.991953,0 C111.623814,0 117,5.36948096 117,12.0064476 L117,28.7452705 C117,35.3762484 111.625392,40.7517181 104.991953,40.7517181 L79.0080469,40.7517181 C72.3761857,40.7517181 67,35.3822371 67,28.7452705 L67,12.0064476 Z M68.3333333,11.5137036 C68.3333333,5.99165578 72.807654,1.51515152 78.3425833,1.51515152 L105.657417,1.51515152 C111.185373,1.51515152 115.666667,5.99450736 115.666667,11.5137036 L115.666667,29.4302432 C115.666667,34.9522911 111.192346,39.4287954 105.657417,39.4287954 L78.3425833,39.4287954 C72.8146272,39.4287954 68.3333333,34.9494395 68.3333333,29.4302432 L68.3333333,11.5137036 Z M78.9047619,23.897124 C78.9047619,23.2852954 79.4045647,22.7893103 80.0134055,22.7893103 L103.986594,22.7893103 C104.598881,22.7893103 105.095238,23.2810298 105.095238,23.897124 C105.095238,24.5089526 104.595435,25.0049377 103.986594,25.0049377 L80.0134055,25.0049377 C79.4011186,25.0049377 78.9047619,24.5132182 78.9047619,23.897124 Z M89.8696742,19.149351 C89.8696742,18.5375224 90.3741712,18.0415373 90.984639,18.0415373 L103.917617,18.0415373 C104.533395,18.0415373 105.032581,18.5332568 105.032581,19.149351 C105.032581,19.7611796 104.528084,20.2571647 103.917617,20.2571647 L90.984639,20.2571647 C90.3688609,20.2571647 89.8696742,19.7654452 89.8696742,19.149351 Z M79.6191945,19.6241283 L79.3789087,19.1217639 C79.3641011,19.0905961 79.3513129,19.0599956 79.3405437,19.0299612 L79.3371784,19.0299612 C79.3241657,19.0639624 79.3102557,19.0945629 79.2954481,19.1217639 L79.0511239,19.6241283 L78.964971,19.6241283 L79.294102,18.9602592 L78.98449,18.3074404 L79.071316,18.3074404 L79.304198,18.8021547 C79.3163133,18.8282222 79.3288771,18.8576894 79.3418899,18.8905572 L79.3452552,18.8905572 L79.3836202,18.8021547 L79.6151561,18.3074404 L79.6992897,18.3074404 L79.3863125,18.9585592 L79.7060204,19.6241283 L79.6191945,19.6241283 Z M81.0837323,19.6241283 L80.8434465,19.1217639 C80.8286389,19.0905961 80.8158507,19.0599956 80.8050816,19.0299612 L80.8017162,19.0299612 C80.7887035,19.0639624 80.7747935,19.0945629 80.7599859,19.1217639 L80.5156617,19.6241283 L80.4295088,19.6241283 L80.7586398,18.9602592 L80.4490278,18.3074404 L80.5358538,18.3074404 L80.7687358,18.8021547 C80.7808511,18.8282222 80.793415,18.8576894 80.8064277,18.8905572 L80.809793,18.8905572 L80.848158,18.8021547 L81.0796939,18.3074404 L81.1638275,18.3074404 L80.8508503,18.9585592 L81.1705582,19.6241283 L81.0837323,19.6241283 Z M82.5482701,19.6241283 L82.3079843,19.1217639 C82.2931767,19.0905961 82.2803885,19.0599956 82.2696194,19.0299612 L82.266254,19.0299612 C82.2532413,19.0639624 82.2393313,19.0945629 82.2245237,19.1217639 L81.9801995,19.6241283 L81.8940466,19.6241283 L82.2231776,18.9602592 L81.9135657,18.3074404 L82.0003916,18.3074404 L82.2332736,18.8021547 C82.2453889,18.8282222 82.2579528,18.8576894 82.2709655,18.8905572 L82.2743308,18.8905572 L82.3126958,18.8021547 L82.5442317,18.3074404 L82.6283653,18.3074404 L82.3153881,18.9585592 L82.635096,19.6241283 L82.5482701,19.6241283 Z M84.0128079,19.6241283 L83.7725221,19.1217639 C83.7577145,19.0905961 83.7449263,19.0599956 83.7341572,19.0299612 L83.7307918,19.0299612 C83.7177791,19.0639624 83.7038691,19.0945629 83.6890615,19.1217639 L83.4447373,19.6241283 L83.3585844,19.6241283 L83.6877154,18.9602592 L83.3781035,18.3074404 L83.4649294,18.3074404 L83.6978114,18.8021547 C83.7099267,18.8282222 83.7224906,18.8576894 83.7355033,18.8905572 L83.7388687,18.8905572 L83.7772336,18.8021547 L84.0087695,18.3074404 L84.0929032,18.3074404 L83.7799259,18.9585592 L84.0996339,19.6241283 L84.0128079,19.6241283 Z M78.8421053,47.8733775 C78.8421053,47.2615489 79.3419081,46.7655638 79.9507489,46.7655638 L103.923938,46.7655638 C104.536225,46.7655638 105.032581,47.2572834 105.032581,47.8733775 C105.032581,48.4852061 104.532779,48.9811912 103.923938,48.9811912 L79.9507489,48.9811912 C79.3384619,48.9811912 78.8421053,48.4894717 78.8421053,47.8733775 Z" id="Combined-Shape"></path>
                    </g>
                </g>
            </g>
        </g>
    </g>
</svg>