<?xml version="1.0" encoding="UTF-8" standalone="no"?>
<svg width="49px" height="50px" viewBox="0 0 49 50" version="1.1" xmlns="http://www.w3.org/2000/svg" xmlns:xlink="http://www.w3.org/1999/xlink">
    <!-- Generator: Sketch 41.2 (35397) - http://www.bohemiancoding.com/sketch -->
    <title>Combined Shape</title>
    <desc>Created with Sketch.</desc>
    <defs></defs>
    <g id="swift" stroke="none" stroke-width="1" fill="none" fill-rule="evenodd">
        <g id="产品详情5th" transform="translate(-1762.000000, -623.000000)" fill="#FFFFFF">
            <g id="Sensors" transform="translate(0.000000, -199.000000)">
                <g id="sensors_names" transform="translate(68.000000, 450.000000)">
                    <g id="Grove-PIR" transform="translate(1615.000000, 372.000000)">
                        <path d="M124.140527,50 C123.49059,50 122.858218,49.8067754 122.331242,49.455458 L114.250941,42.7452949 C113.82936,42.3764115 113.548306,41.8933501 113.434128,41.3400251 L111.55458,33.8130489 L109.411543,33.8130489 L104.510665,39.8205771 L104.510665,47.3475533 L104.501882,47.382685 C104.291092,48.8670012 102.956085,49.991217 101.392723,49.991217 C100.549561,49.991217 99.7503136,49.6750314 99.1618569,49.1041405 C98.5646173,48.5244667 98.2308657,47.7515683 98.2308657,46.9171894 C98.2308657,46.4604768 98.3538268,45.9861982 98.5734002,45.5382685 L98.7490589,38.2572145 C98.8808029,37.7038896 99.0213299,37.2647428 99.8117941,36.6587202 L104.712672,30.4755332 L103.887077,26.672522 L101.954831,29.2634881 C101.577164,29.8431619 100.971142,30.2910917 100.27729,30.4930992 L93.7954831,33.3036387 C93.2772898,33.6549561 92.6361355,33.8393978 91.9861982,33.8393978 C90.3437892,33.8393978 89,32.6361356 89,31.1518194 C89,30.2910917 89.4479298,29.5094104 90.2120452,29.0000001 L97.5370138,25.7766626 C97.6160603,25.715182 97.7038896,25.6712673 97.7741531,25.6361356 L101.515684,20.3400252 C102.016311,19.4265998 103.070263,18.8381431 104.212045,18.8381431 L104.25596,18.8381431 L110.649937,17.898369 C110.948557,17.8017567 111.247177,17.757842 111.545797,17.757842 C112.178168,17.757842 112.775408,17.9159348 113.23212,18.2145546 L121.57591,22.3864492 C121.997491,22.5972397 122.366374,22.9046425 122.629862,23.2823087 L122.647428,23.3086575 L122.664994,23.3350064 L126.696361,30.9849436 C126.705144,31.0552071 126.705144,31.1254706 126.705144,31.195734 C126.705144,32.6800502 125.361355,33.8833124 123.718946,33.8833124 C122.506901,33.8833124 121.409034,33.1894605 120.961104,32.161857 L117.904642,26.6286073 L115.190715,25.302384 L116.780427,30.1856964 C116.824341,30.3174404 116.868256,30.4491845 116.912171,30.6336262 C116.964868,30.791719 116.973651,30.9146801 116.973651,31.0112924 L119.116688,39.5043915 L124.061481,43.8431619 L124.166876,43.8431619 C125.010038,43.8431619 125.809285,44.1593476 126.397742,44.7302385 C126.994981,45.3099122 127.328733,46.0828106 127.328733,46.9171895 C127.346299,48.6210791 125.905897,50 124.140527,50 Z M122.348808,48.08532 L122.68256,48.3839398 C123.069009,48.7352572 123.604768,48.9372647 124.140527,48.9372647 C125.326223,48.9372647 126.292346,48.0326223 126.292346,46.9171895 C126.292346,45.7841908 125.370138,44.8971142 124.184442,44.8971142 L123.683814,44.8971142 L118.194479,40.0840653 L115.937265,31.1430364 L115.937265,31.0815559 C115.937265,31.0112924 115.937265,30.9937265 115.919699,30.9498119 L115.910916,30.9146801 C115.875784,30.7653702 115.831869,30.6424091 115.796738,30.519448 L113.416562,23.2296112 L118.659975,25.8469261 L121.900878,31.7139273 L121.909661,31.7402761 C122.181932,32.3902134 122.919699,32.8381431 123.710163,32.8381431 C124.772898,32.8381431 125.642409,32.1091594 125.642409,31.204517 C125.642409,31.0025095 125.607277,30.8180678 125.55458,30.6687579 L125.46675,30.4404015 L121.751568,23.9058972 C121.584693,23.6775408 121.356336,23.4843162 121.092848,23.3613551 L112.696361,19.1631117 L112.670013,19.1455458 C112.380176,18.9523213 111.976161,18.846926 111.537014,18.846926 C111.335006,18.846926 111.132999,18.8820577 110.930991,18.9523213 L110.887076,18.9698871 L104.335006,19.9272271 L104.212045,19.9272271 C103.44793,19.9272271 102.745295,20.3048934 102.437892,20.902133 L102.420326,20.9284818 L102.40276,20.9548307 L98.4855709,26.4968633 L98.3713927,26.5583439 C98.3450439,26.5759097 98.3186951,26.5846927 98.2835634,26.6022585 C98.2572145,26.6110415 98.2132999,26.6286074 98.195734,26.6461732 L98.1342534,26.7076538 L91.2835634,29.6323715 L91.2835634,29.6411544 L91.0025094,29.7904644 C90.4228356,30.097867 90.0715182,30.6160603 90.0715182,31.1781682 C90.0715182,32.0740276 90.9410289,32.8117943 92.0037642,32.8117943 C92.4516939,32.8117943 92.9084066,32.6712673 93.2509411,32.434128 L93.2948558,32.4077792 L99.9347554,29.5269762 L99.9698871,29.5181933 C100.435383,29.3864492 100.856964,29.0790465 101.094103,28.7101631 L101.111669,28.6750314 L104.431619,24.204517 L105.854454,30.7565872 L100.567127,37.4316186 L100.514429,37.4755333 C99.7327479,37.9849436 99.7503137,39.3462987 99.7503137,39.3462987 L99.6449184,45.8193225 L99.574655,45.9422836 C99.3902133,46.2672522 99.293601,46.6185697 99.293601,46.9347553 C99.293601,48.0677541 100.215809,48.9548306 101.401506,48.9548306 C102.429109,48.9548306 103.307403,48.2434128 103.465496,47.2860728 L103.465496,39.4604768 L108.919699,32.7766624 L112.380176,32.7766625 L114.470514,41.1380176 C114.540778,41.4717691 114.698871,41.7440402 114.944793,41.9636136 L122.348808,48.08532 Z M105.415307,18.3638645 C104.045169,18.3638645 102.754078,17.8193225 101.779172,16.8356337 C100.804266,15.8519448 100.27729,14.5520703 100.27729,13.1819323 C100.27729,11.7942284 100.813049,10.4855709 101.787955,9.51066501 C102.754078,8.53575913 104.053952,8 105.42409,8 L105.42409,8 C106.820577,8 108.120452,8.53575908 109.095358,9.51066501 C110.070264,10.4855709 110.606023,11.7942284 110.606023,13.1819323 C110.59724,16.0451694 108.269762,18.3638645 105.415307,18.3638645 Z M105.415307,9.04516944 C103.158093,9.04516944 101.322459,10.898369 101.322459,13.1819323 C101.322459,14.2797993 101.752823,15.3074028 102.525721,16.0978671 C103.29862,16.8795484 104.326223,17.3186952 105.415307,17.3186952 C107.690088,17.3186952 109.55207,15.4654957 109.55207,13.1819323 C109.55207,12.0664995 109.121706,11.030113 108.348808,10.2572146 C107.567127,9.47553333 106.521957,9.04516944 105.415307,9.04516944 Z M85.6414681,1.61608056 C85.7706906,1.45068333 85.9628079,1.33442503 86.1871843,1.30651758 C86.6359372,1.25070268 87.0438165,1.5693729 87.0982227,2.01829876 C87.3632624,4.20524084 86.7611026,6.36723584 85.4026638,8.10595828 C84.0471193,9.84097609 82.0993783,10.9477412 79.9182324,11.2223204 C79.4695656,11.278845 79.0611842,10.9607003 79.0061699,10.5118501 C78.9511556,10.0629999 79.2701581,9.65340714 79.7188818,9.59692695 C81.4668665,9.37694368 83.0278879,8.48983166 84.1142561,7.09934387 C85.2029397,5.70589237 85.6855809,3.9731366 85.4731089,2.22037541 C85.4459626,1.99595685 85.5122902,1.78142075 85.6414681,1.61608056 Z M90.9291644,0.955887117 C91.0583869,0.790489888 91.2505042,0.674231586 91.4748807,0.646324136 C91.9236336,0.590509236 92.3315128,0.909179455 92.385919,1.35810532 C92.8221269,4.95742007 91.8310948,8.51561592 89.5954394,11.3771243 C87.3600511,14.2382908 84.147808,16.0606275 80.5503668,16.5083266 C80.1016262,16.5642429 79.6937024,16.2456296 79.6392393,15.7966595 C79.5848331,15.3477336 79.9044483,14.9385278 80.3532012,14.8827129 C83.5166289,14.4889439 86.3413541,12.8864625 88.3070317,10.3705099 C90.2729764,7.85421542 91.1444453,4.72531579 90.7608052,1.56018187 C90.7336144,1.33582045 90.7999419,1.12128435 90.9291644,0.955887117 Z M96.0754439,0.315907105 C96.2046664,0.150509877 96.3967837,0.0342515744 96.6211602,0.00634412444 C97.0699131,-0.0494707754 97.4777924,0.269199443 97.5321986,0.71812531 C98.1350654,5.69260495 96.7653697,10.610279 93.6755191,14.5651074 C90.5860692,18.5194229 86.1465276,21.0379362 81.1746341,21.6568439 C80.7258367,21.7127158 80.3179129,21.3941025 80.2634499,20.9451323 C80.2090437,20.4962065 80.5287156,20.087045 80.9774117,20.0311858 C85.5152596,19.4663665 89.5673277,17.1676516 92.3871114,13.558493 C95.2072513,9.94887858 96.4573269,5.46045639 95.9070847,0.920201958 C95.8798939,0.695840378 95.9462215,0.481304278 96.0754439,0.315907105 Z" id="Combined-Shape"></path>
                    </g>
                </g>
            </g>
        </g>
    </g>
</svg>