<?xml version="1.0" encoding="UTF-8" standalone="no"?>
<svg width="30px" height="52px" viewBox="0 0 30 52" version="1.1" xmlns="http://www.w3.org/2000/svg" xmlns:xlink="http://www.w3.org/1999/xlink">
    <!-- Generator: Sketch 41.2 (35397) - http://www.bohemiancoding.com/sketch -->
    <title>Combined Shape</title>
    <desc>Created with Sketch.</desc>
    <defs></defs>
    <g id="swift" stroke="none" stroke-width="1" fill="none" fill-rule="evenodd">
        <g id="产品详情5th" transform="translate(-328.000000, -435.000000)" fill="#FFFFFF">
            <g id="Sensors" transform="translate(0.000000, -199.000000)">
                <g id="sensors_names" transform="translate(68.000000, 450.000000)">
                    <g id="temperature-sensors" transform="translate(180.000000, 184.000000)">
                        <path d="M100.657388,36.1333098 C100.633885,39.5911682 97.7726708,42.3871631 94.2465753,42.3871631 C90.7059005,42.3871631 87.8356164,39.5679992 87.8356164,36.0903843 C87.8356164,32.9530545 90.1716671,30.3516211 93.2285261,29.8725587 L93.2285261,14.472351 C93.2285261,13.9542503 93.6437637,13.5342466 94.1640308,13.5342466 C94.6806958,13.5342466 95.0995355,13.9483492 95.0995355,14.472351 L95.0995355,28.4429625 L95.0995355,31.5680312 C94.8316959,31.5206098 94.5558367,31.495852 94.2740902,31.495852 C91.7211573,31.495852 89.6515962,33.5285538 89.6515962,36.0360187 C89.6515962,38.5434835 91.7211573,40.5761853 94.2740902,40.5761853 C96.7993435,40.5761853 98.8516498,38.5873227 98.8958563,36.1174091 L98.8965842,36.1174091 C98.8965842,35.6397968 99.2907863,35.2526155 99.7770592,35.2526155 C100.263332,35.2526155 100.657534,35.6397968 100.657534,36.1174091 C100.657534,36.1227206 100.657485,36.128021 100.657388,36.1333098 Z M99.5908861,25.6616889 C103.979198,27.7272675 107.024403,32.2529182 107.024403,37.5035857 C107.024403,44.7034268 101.29864,50.5400512 94.2355528,50.5400512 C87.1724658,50.5400512 81.4467025,44.7034268 81.4467025,37.5035857 C81.4467025,32.2634542 84.4796992,27.7454329 88.8538189,25.6741531 L88.8538195,6.83357246 C88.8538195,3.87351975 91.2634268,1.4739229 94.2223528,1.4739229 C97.1873119,1.4739229 99.5908861,3.88409222 99.5908861,6.83357246 L99.5908861,25.6616889 Z M101.063989,24.8468729 C105.445617,27.3118774 108.413238,32.065894 108.413238,37.5260771 C108.413238,45.519804 102.052718,52 94.2066188,52 C86.3605199,52 80,45.519804 80,37.5260771 C80,32.0418905 82.9937701,27.2700927 87.4071169,24.8144965 L87.4071169,6.82812329 C87.4071169,3.05705493 90.4719855,0 94.2355528,0 C98.0067939,0 101.063989,3.06195548 101.063989,6.82812329 L101.063989,24.8468729 Z M105.056888,9.07936508 C105.056888,8.52582798 105.505479,8.07709751 106.064074,8.07709751 L108.910622,8.07709751 C109.466876,8.07709751 109.917808,8.52196882 109.917808,9.07936508 C109.917808,9.63290218 109.469217,10.0816327 108.910622,10.0816327 L106.064074,10.0816327 C105.50782,10.0816327 105.056888,9.63676133 105.056888,9.07936508 Z M105.056888,13.2063492 C105.056888,12.6528121 105.505479,12.2040816 106.064074,12.2040816 L108.910622,12.2040816 C109.466876,12.2040816 109.917808,12.648953 109.917808,13.2063492 C109.917808,13.7598863 109.469217,14.2086168 108.910622,14.2086168 L106.064074,14.2086168 C105.50782,14.2086168 105.056888,13.7637455 105.056888,13.2063492 Z M105.056888,17.3333333 C105.056888,16.7797962 105.505479,16.3310658 106.064074,16.3310658 L108.910622,16.3310658 C109.466876,16.3310658 109.917808,16.7759371 109.917808,17.3333333 C109.917808,17.8868704 109.469217,18.3356009 108.910622,18.3356009 L106.064074,18.3356009 C105.50782,18.3356009 105.056888,17.8907296 105.056888,17.3333333 Z M94.2465753,39.1780822 C95.8202086,39.1780822 97.0958904,37.9024004 97.0958904,36.3287671 C97.0958904,34.7551339 95.8202086,33.4794521 94.2465753,33.4794521 C92.6729421,33.4794521 91.3972603,34.7551339 91.3972603,36.3287671 C91.3972603,37.9024004 92.6729421,39.1780822 94.2465753,39.1780822 Z" id="Combined-Shape"></path>
                    </g>
                </g>
            </g>
        </g>
    </g>
</svg>